<mxfile>
    <diagram id="im5u0TXeS9kk5fpzWxO-" name="Page-1">
        <mxGraphModel dx="1029" dy="771" grid="1" gridSize="10" guides="1" tooltips="1" connect="1" arrows="1" fold="1" page="1" pageScale="1" pageWidth="850" pageHeight="1100" math="0" shadow="0">
            <root>
                <mxCell id="0"/>
                <mxCell id="1" parent="0"/>
                <mxCell id="2" value="" style="html=1;whiteSpace=wrap;shape=isoCube2;backgroundOutline=1;isoAngle=15;" parent="1" vertex="1">
                    <mxGeometry x="27.5" y="280" width="90" height="100" as="geometry"/>
                </mxCell>
                <mxCell id="3" value="MongoDB&lt;br&gt;POD&amp;nbsp;" style="text;html=1;strokeColor=#001DBC;fillColor=#0050ef;align=center;verticalAlign=middle;whiteSpace=wrap;rounded=0;fontColor=#ffffff;fontStyle=1;fontSize=22;" parent="1" vertex="1">
                    <mxGeometry x="20" y="390" width="105" height="40" as="geometry"/>
                </mxCell>
                <mxCell id="5" style="edgeStyle=orthogonalEdgeStyle;rounded=0;orthogonalLoop=1;jettySize=auto;html=1;exitX=0.75;exitY=1;exitDx=0;exitDy=0;entryX=1;entryY=0.75;entryDx=0;entryDy=0;" parent="1" source="3" target="3" edge="1">
                    <mxGeometry relative="1" as="geometry"/>
                </mxCell>
                <mxCell id="8" value="&lt;b&gt;&lt;font color=&quot;#ff3333&quot;&gt;Internal Service&lt;/font&gt;&lt;/b&gt; (Can communicate with only components in the same cluster)" style="text;html=1;strokeColor=none;fillColor=none;align=center;verticalAlign=middle;whiteSpace=wrap;rounded=0;fontSize=22;" parent="1" vertex="1">
                    <mxGeometry x="52.5" y="170" width="40" height="20" as="geometry"/>
                </mxCell>
                <mxCell id="13" value="" style="html=1;whiteSpace=wrap;shape=isoCube2;backgroundOutline=1;isoAngle=15;" parent="1" vertex="1">
                    <mxGeometry x="660" y="280" width="90" height="100" as="geometry"/>
                </mxCell>
                <mxCell id="14" value="Mongo-Express&lt;br&gt;Deployment" style="text;html=1;strokeColor=#001DBC;fillColor=#0050ef;align=center;verticalAlign=middle;whiteSpace=wrap;rounded=0;fontColor=#ffffff;fontStyle=1;fontSize=22;" parent="1" vertex="1">
                    <mxGeometry x="630" y="390" width="150" height="80" as="geometry"/>
                </mxCell>
                <mxCell id="16" value="ConfigMap" style="swimlane;fontStyle=0;childLayout=stackLayout;horizontal=1;startSize=26;fillColor=none;horizontalStack=0;resizeParent=1;resizeParentMax=0;resizeLast=0;collapsible=1;marginBottom=0;fontSize=22;labelBackgroundColor=none;" parent="1" vertex="1">
                    <mxGeometry x="230" y="150" width="140" height="52" as="geometry"/>
                </mxCell>
                <mxCell id="17" value="DB URL" style="text;strokeColor=none;fillColor=none;align=left;verticalAlign=top;spacingLeft=4;spacingRight=4;overflow=hidden;rotatable=0;points=[[0,0.5],[1,0.5]];portConstraint=eastwest;labelBackgroundColor=none;" parent="16" vertex="1">
                    <mxGeometry y="26" width="140" height="26" as="geometry"/>
                </mxCell>
                <mxCell id="20" value="Secret" style="swimlane;fontStyle=0;childLayout=stackLayout;horizontal=1;startSize=26;fillColor=none;horizontalStack=0;resizeParent=1;resizeParentMax=0;resizeLast=0;collapsible=1;marginBottom=0;fontSize=22;labelBackgroundColor=none;" parent="1" vertex="1">
                    <mxGeometry x="230" y="300" width="140" height="70" as="geometry"/>
                </mxCell>
                <mxCell id="21" value="DB User&#10;DB Password" style="text;strokeColor=none;fillColor=none;align=left;verticalAlign=top;spacingLeft=4;spacingRight=4;overflow=hidden;rotatable=0;points=[[0,0.5],[1,0.5]];portConstraint=eastwest;labelBackgroundColor=none;" parent="20" vertex="1">
                    <mxGeometry y="26" width="140" height="44" as="geometry"/>
                </mxCell>
                <mxCell id="22" value="Deployment.yaml" style="swimlane;fontStyle=0;childLayout=stackLayout;horizontal=1;startSize=26;fillColor=none;horizontalStack=0;resizeParent=1;resizeParentMax=0;resizeLast=0;collapsible=1;marginBottom=0;fontSize=22;" parent="1" vertex="1">
                    <mxGeometry x="460" y="228" width="180" height="52" as="geometry"/>
                </mxCell>
                <mxCell id="23" value="Env. variables" style="text;strokeColor=none;fillColor=none;align=left;verticalAlign=top;spacingLeft=4;spacingRight=4;overflow=hidden;rotatable=0;points=[[0,0.5],[1,0.5]];portConstraint=eastwest;" parent="22" vertex="1">
                    <mxGeometry y="26" width="180" height="26" as="geometry"/>
                </mxCell>
                <mxCell id="26" value="" style="shape=actor;whiteSpace=wrap;html=1;labelBackgroundColor=#CC0000;fontSize=22;labelBorderColor=none;" parent="1" vertex="1">
                    <mxGeometry x="685" y="590" width="40" height="60" as="geometry"/>
                </mxCell>
                <mxCell id="27" value="" style="shape=flexArrow;endArrow=classic;html=1;fontSize=22;" parent="1" edge="1">
                    <mxGeometry width="50" height="50" relative="1" as="geometry">
                        <mxPoint x="704.5" y="570" as="sourcePoint"/>
                        <mxPoint x="704.5" y="500" as="targetPoint"/>
                    </mxGeometry>
                </mxCell>
                <mxCell id="28" value="External&lt;br&gt;Service" style="text;html=1;strokeColor=none;fillColor=none;align=center;verticalAlign=middle;whiteSpace=wrap;rounded=0;labelBackgroundColor=#CC0000;fontSize=22;" parent="1" vertex="1">
                    <mxGeometry x="770" y="520" width="40" height="20" as="geometry"/>
                </mxCell>
                <mxCell id="29" style="edgeStyle=orthogonalEdgeStyle;rounded=0;orthogonalLoop=1;jettySize=auto;html=1;exitX=0.5;exitY=1;exitDx=0;exitDy=0;fontSize=22;" parent="1" source="28" target="28" edge="1">
                    <mxGeometry relative="1" as="geometry"/>
                </mxCell>
                <mxCell id="33" style="edgeStyle=orthogonalEdgeStyle;rounded=0;orthogonalLoop=1;jettySize=auto;html=1;exitX=1;exitY=0.5;exitDx=0;exitDy=0;entryX=0;entryY=0.5;entryDx=0;entryDy=0;fontSize=22;" parent="1" source="21" target="23" edge="1">
                    <mxGeometry relative="1" as="geometry"/>
                </mxCell>
                <mxCell id="34" style="edgeStyle=orthogonalEdgeStyle;rounded=0;orthogonalLoop=1;jettySize=auto;html=1;exitX=1;exitY=0.5;exitDx=0;exitDy=0;entryX=-0.006;entryY=0.077;entryDx=0;entryDy=0;entryPerimeter=0;fontSize=22;" parent="1" source="17" target="23" edge="1">
                    <mxGeometry relative="1" as="geometry"/>
                </mxCell>
            </root>
        </mxGraphModel>
    </diagram>
</mxfile>